<svg width="1000" height="520" viewBox="0 0 264.583 137.583" xmlns="http://www.w3.org/2000/svg"><defs><path id="a" d="M70.714 112.857h618.619V527.95H70.714z"/><path id="c" d="M77.317 141.032h353.449v226.659H77.317z"/><path id="b" d="M60.462 258.881h484.034v266.014H60.462z"/></defs><g fill="#f9f7fa"><g aria-label="Art" transform="matrix(3.09473 0 0 3.09473 -182.613 -792.142)" style="line-height:1.25;white-space:pre;shape-inside:url(#b)" font-size="40" stroke-width=".133" stroke-linecap="round" stroke-linejoin="round" font-weight="700" font-family="Shadows Into Light"><path d="M61.477 293.256q.117-.547.195-1.406.078-.86.195-2.266.156-1.406.313-3.477.195-2.07.508-5.039.312-2.968.703-6.953.43-4.023 1.093-9.336.04-.39.352-.468.352-.079.625-.079.43 0 .703.313.273.312.469.703.234.39.43.82.195.43.43.704.39.898.78 2.07.43 1.172.899 2.5.469 1.328.937 2.695.47 1.328.938 2.617.469 1.25.86 2.344.429 1.055.78 1.758.43-.04 1.211-.313.782-.312 1.68-.586.899-.273 1.758-.43.86-.155 1.445 0 .586.118.742.665.196.547-.273 1.719-.273 0-.508-.079-.234-.117-.469-.195-.234-.117-.507-.195-.235-.117-.547-.117-.196 0-.899.234-.664.195-1.445.469-.781.234-1.367.508-.586.234-.586.351l2.695 10.586-1.015 1.484q-.665-1.132-1.133-2.578-.43-1.484-.82-2.93-.391-1.484-.82-2.734-.391-1.289-1.016-2.148-.82.39-1.954.664-1.132.273-2.187.703-1.055.39-1.836 1.094-.742.664-.898 1.836-.079.468-.157 1.25-.039.781-.117 1.484-.117.86-.195 1.758zm4.492-23.008l-.078.664q-.04.664-.118 1.563-.078.859-.195 1.796-.078.899-.117 1.524-.195 2.187-.43 4.336-.195 2.11-.195 4.336.742 0 1.562-.196.86-.195 1.641-.507.781-.352 1.406-.82.664-.508 1.016-1.133-.313-1.368-.703-2.813-.352-1.484-.781-2.969-.43-1.523-.938-2.968-.508-1.446-1.094-2.813-.039-.04-.273-.156-.235-.156-.703.156z" style="-inkscape-font-specification:'Shadows Into Light, Bold'"/><path d="M77.102 275.443v-.312q0-.39.273-.547.313-.156.703-.156.313 0 .586.078.273.039.43.43.117.585.234 1.64.117 1.016.274 2.266.156 1.25.312 2.656.195 1.367.352 2.617.195 1.211.39 2.188.196.976.43 1.484-.117-3.75.234-6.484.352-2.774 1.328-4.492 1.016-1.758 2.735-2.422 1.758-.703 4.375-.313 1.21 0 1.21 1.29 0 .507-.663.702-.664.157-1.485.235-.82.039-1.601.117-.781.078-1.133.39-1.406.782-1.992 2.422-.547 1.641-.781 3.868-.235 2.226-.352 4.882-.078 2.618-.508 5.391 0 .39-.312.586-.313.195-.782.195-.43 0-.859-.195-.39-.195-.625-.586z" style="-inkscape-font-specification:'Shadows Into Light, Bold'"/><path d="M94.016 277.592q-.391.195-.743.43l-.625.39q-.312.156-.625.234-.312.079-.664 0-.234 0-.39-.273-.156-.312-.235-.664-.117-.39-.156-.742-.039-.39 0-.586l3.75-2.149.234-10q.079-.507.626-.39.546.078 1.132.234.078 0 .235.078.195.04.273.078-.078 1.055-.195 2.305-.078 1.211-.156 2.461-.079 1.21-.118 2.383 0 1.172.118 2.11l5.859-1.641q.156-.04.234.234.118.234.196.586.117.351.156.703l.039.352-6.64 2.812q0 .352.038 1.68.079 1.328.157 3.164.078 1.797.156 3.906.078 2.07.156 3.867.078 1.797.117 3.164.04 1.328.04 1.68-.079 1.172-.704 1.172-.586 0-1.289-.586z" style="-inkscape-font-specification:'Shadows Into Light, Bold'"/></g><g style="line-height:1.25;white-space:pre;shape-inside:url(#c)"><path d="M203.246 10.805c-4.295 3.49-12.528 7.561-24.699 12.215-.537.805-.537 1.342 0 1.61 2.238.627 10.381-1.207 24.431-5.503a59.155 59.155 0 0113.692-3.49c1.432 0 2.371-.313 2.819-.94.358-.895.045-1.879-.94-2.953-1.7-1.61-4.474-3.266-8.322-4.967-1.343-.805-2.596-1.163-3.759-1.073-.626.268-1.029.894-1.208 1.879-.09 1.342-.76 2.416-2.014 3.222zm-27.652 23.759c1.61 1.7 3.311 3.624 5.101 5.772.895 1.163 1.969 1.745 3.222 1.745.895 0 1.566-.492 2.013-1.476.358-1.074.358-2.775 0-5.101-.805-2.685-4.295-4.878-10.47-6.578-1.163-.358-2.014-.492-2.55-.403-.359.358-.537 1.03-.537 2.014.089.895 1.163 2.237 3.221 4.027zm18.525-4.295c1.879 3.49 3.758 5.861 5.637 7.114.895.358 1.79.179 2.685-.537.626-.805.94-1.79.94-2.953-.269-2.685-2.059-4.877-5.37-6.578-2.416-1.074-3.892-1.521-4.43-1.342-.357 0-.581.447-.67 1.342 0 .806.402 1.79 1.208 2.954zm27.92-6.175c-.626.895-3.758 3.982-9.396 9.262-.895 1.074-.716 1.61.537 1.61 4.116-1.431 8.367-3.131 12.752-5.1a24.723 24.723 0 015.235-2.148c1.7-.358 2.237-1.298 1.611-2.819-.805-1.432-2.058-2.864-3.759-4.295-1.61-1.164-2.863-1.79-3.758-1.88-.895 0-1.298.493-1.208 1.477 0 1.432-.671 2.73-2.014 3.893zm-56.11 28.055c2.416 1.432 5.907 1.566 10.47.402 8.681-2.684 24.52-5.682 47.52-8.993 7.517-1.074 12.215-1.432 14.094-1.074 1.432.358 2.103.984 2.014 1.88a853.85 853.85 0 00-6.31 12.886l.27.134c.805.358 1.968.045 3.49-.94 5.19-3.31 9.933-5.458 14.228-6.443 3.58-.895 5.325-1.834 5.235-2.819-.268-.895-3.49-3.848-9.665-8.86-1.7-1.431-3.713-2.102-6.04-2.013a3513.077 3513.077 0 00-23.894 4.027c-8.949 1.164-20.493 2.998-34.633 5.504a207.186 207.186 0 01-16.376 2.55c-.358 0-.671.045-.94.135-1.074-1.88-2.103-3.132-3.087-3.759-1.7-1.163-2.55-.582-2.55 1.745.626 3.043-1.388 7.696-6.041 13.96-1.611 1.97-1.119 5.236 1.476 9.8l.135.268c1.7 1.969 3.132 1.79 4.295-.537a535.207 535.207 0 016.31-17.853zm40.942 62.687c11.633 11.634 19.643 17.317 24.028 17.048 7.606-.537 14.408-1.521 20.403-2.953 3.222-.626 4.654-1.342 4.296-2.148-.09-.358-1.745-.984-4.967-1.88-16.466-3.579-27.026-6.71-31.68-9.396-.626-.268-3.265-1.968-7.919-5.1 3.043-3.848 5.638-8.591 7.786-14.23.895-2.773 2.282-4.787 4.161-6.04 1.432-1.074 1.477-2.327.134-3.758-1.432-1.611-3.49-3.088-6.174-4.43-1.7-.895-3.49-.94-5.37-.135-4.653 1.97-10.112 3.133-16.376 3.49-.806 0-1.477.09-2.014.269 1.432-1.61 2.193-2.64 2.282-3.087-.268-2.148-2.058-3.938-5.37-5.37-1.61-.626-2.863-.94-3.758-.94-.626.09-.94.672-.94 1.746.358 7.248-5.28 16.51-16.913 27.786-.269.09-.492.314-.671.671-3.49 3.222-9.397 7.92-17.72 14.095-.626.358-.581.671.135.94 5.37 0 13.423-4.699 24.162-14.095 2.685-2.774 6.13-6.488 10.336-11.142 6.533 4.296 12.484 9.039 17.853 14.23-6.174 5.369-16.331 9.664-30.47 12.886-1.343.09-1.656.582-.94 1.476.626.627 2.147.895 4.563.806 8.413-.627 15.08-1.88 20.001-3.759a38.967 38.967 0 0011.142-6.98zm-11.007-16.645c-3.312-3.042-6.444-4.474-9.397-4.295a121.649 121.649 0 014.698-5.772c2.148 1.342 4.922 1.655 8.323.94 3.58-.538 7.114-1.075 10.604-1.612 1.611-.358 2.372.313 2.282 2.014 0 5.1-2.192 10.828-6.577 17.182a277.504 277.504 0 01-9.933-8.457z" style="-inkscape-font-specification:'AR PL UKai HK'" font-family="AR PL UKai HK" aria-label="愛" font-size="40"/></g><path d="M204.963 56.523c-1.506-2.511-4.017-4.269-7.03-4.269-4.268 0-7.532 3.264-7.532 7.532 0 8.286 4.52 9.54 14.562 19.081 10.043-9.54 14.562-10.795 14.562-19.08 0-4.269-3.264-7.533-7.532-7.533-3.013 0-5.523 1.758-7.03 4.269z" fill="#ec6889"/></g></svg>
